<svg id="visual" viewBox="0 0 540 960" width="540" height="960" xmlns="http://www.w3.org/2000/svg" xmlns:xlink="http://www.w3.org/1999/xlink" version="1.1"><rect x="0" y="0" width="540" height="960" fill="#101010"></rect><defs><linearGradient id="grad1_0" x1="0%" y1="0%" x2="100%" y2="100%"><stop offset="30%" stop-color="#101010" stop-opacity="1"></stop><stop offset="70%" stop-color="#101010" stop-opacity="1"></stop></linearGradient></defs><defs><linearGradient id="grad2_0" x1="0%" y1="0%" x2="100%" y2="100%"><stop offset="30%" stop-color="#101010" stop-opacity="1"></stop><stop offset="70%" stop-color="#101010" stop-opacity="1"></stop></linearGradient></defs><g transform="translate(540, 0)"><path d="M0 459C-100.2 458.5 -200.3 457.9 -229.5 397.5C-258.7 337.1 -216.9 216.7 -243.4 140.5C-269.8 64.3 -364.4 32.1 -459 0L0 0Z" fill="#ff002e"></path></g><g transform="translate(0, 960)"><path d="M0 -459C40.7 -379.2 81.3 -299.3 156.5 -271.1C231.7 -242.8 341.3 -266.1 397.5 -229.5C453.7 -192.9 456.3 -96.5 459 0L0 0Z" fill="#ff002e"></path></g></svg>